<svg xmlns="http://www.w3.org/2000/svg" viewBox="0 0 800 600" width="800" height="600" font-family="JetBrains Mono, monospace">
  <title>PL45LM Spindle Assembly</title>
  <desc>Synthetic labeled schematic of the BT40 spindle cartridge for the PL45LM-class turn-mill. Component ids match navigate_schematic targets.</desc>
  <style>
    .frame { fill:#0e1622; stroke:#1e2733; stroke-width:2; }
    .part  { fill:#16202c; stroke:#9fb3c8; stroke-width:2; }
    .shaft { fill:#22303f; stroke:#9fb3c8; stroke-width:2; }
    .lbl   { fill:#e5edf5; font-size:15px; }
    .cap   { fill:#7d8da3; font-size:12px; }
    .lead  { stroke:#5b6b80; stroke-width:1; stroke-dasharray:3 3; }
    .axis  { stroke:#334155; stroke-width:1; stroke-dasharray:6 4; }
  </style>

  <rect class="frame" x="8" y="8" width="784" height="584" rx="8"/>
  <text class="lbl" x="24" y="38" font-size="18">PL45LM — Spindle Assembly (BT40)</text>
  <text class="cap" x="24" y="58">Synthetic schematic · vertical cartridge, top → tool nose</text>

  <line class="axis" x1="400" y1="90" x2="400" y2="560"/>

  <!-- Coolant union (top) -->
  <g id="coolant_union">
    <rect class="part" x="360" y="92" width="80" height="34" rx="4"/>
    <line class="lead" x1="440" y1="109" x2="600" y2="109"/>
    <text class="lbl" x="610" y="106">Coolant union</text>
    <text class="cap" x="610" y="124">Through-spindle, 20 bar</text>
  </g>

  <!-- Spindle motor -->
  <g id="spindle_motor">
    <rect class="part" x="330" y="130" width="140" height="70" rx="6"/>
    <line class="lead" x1="330" y1="165" x2="180" y2="165"/>
    <text class="lbl" x="40" y="162">Spindle motor</text>
    <text class="cap" x="40" y="180">AC, belt-coupled, 11 kW</text>
  </g>

  <!-- Encoder -->
  <g id="encoder">
    <rect class="part" x="470" y="146" width="46" height="40" rx="4"/>
    <line class="lead" x1="516" y1="166" x2="600" y2="166"/>
    <text class="lbl" x="610" y="170">Encoder</text>
  </g>

  <!-- Drawbar (central shaft) -->
  <g id="drawbar">
    <rect class="shaft" x="388" y="200" width="24" height="230"/>
    <circle cx="400" cy="210" r="6" fill="#7c3aed"/>
    <line class="lead" x1="388" y1="250" x2="180" y2="250"/>
    <text class="lbl" x="40" y="247" fill="#a78bfa">Drawbar</text>
    <text class="cap" x="40" y="265">BT40 clamp, 13.5 kN</text>
  </g>

  <!-- Disc spring stack -->
  <g id="disc_springs">
    <rect class="part" x="370" y="270" width="60" height="70" rx="3"/>
    <path d="M372 280 h56 M372 292 h56 M372 304 h56 M372 316 h56 M372 328 h56" stroke="#9fb3c8" stroke-width="1.5" fill="none"/>
    <line class="lead" x1="430" y1="305" x2="600" y2="305"/>
    <text class="lbl" x="610" y="302">Disc springs</text>
    <text class="cap" x="610" y="320">18-element Belleville</text>
  </g>

  <!-- Spindle bearings -->
  <g id="spindle_bearings">
    <rect class="part" x="356" y="350" width="88" height="56" rx="4"/>
    <circle cx="378" cy="378" r="9" class="shaft"/>
    <circle cx="422" cy="378" r="9" class="shaft"/>
    <line class="lead" x1="356" y1="378" x2="180" y2="378"/>
    <text class="lbl" x="40" y="375">Spindle bearings</text>
    <text class="cap" x="40" y="393">Angular-contact pack</text>
  </g>

  <!-- Spindle nose -->
  <g id="spindle_nose">
    <path class="part" d="M360 430 L440 430 L420 478 L380 478 Z"/>
    <line class="lead" x1="440" y1="454" x2="600" y2="454"/>
    <text class="lbl" x="610" y="451">Spindle nose</text>
    <text class="cap" x="610" y="469">BT40 taper</text>
  </g>

  <!-- Tool holder -->
  <g id="tool_holder">
    <path class="shaft" d="M384 478 L416 478 L408 520 L392 520 Z"/>
    <rect class="part" x="388" y="520" width="24" height="34" rx="2"/>
    <line class="lead" x1="416" y1="510" x2="600" y2="510"/>
    <text class="lbl" x="610" y="507">Tool holder</text>
    <text class="cap" x="610" y="525">BT40, pull stud P40T-I</text>
  </g>
</svg>
